<svg xmlns:dc="http://purl.org/dc/elements/1.1/" xmlns:cc="http://creativecommons.org/ns#" xmlns:rdf="http://www.w3.org/1999/02/22-rdf-syntax-ns#" xmlns:svg="http://www.w3.org/2000/svg" xmlns="http://www.w3.org/2000/svg" xmlns:sodipodi="http://sodipodi.sourceforge.net/DTD/sodipodi-0.dtd" xmlns:inkscape="http://www.inkscape.org/namespaces/inkscape" version="1.1" x="0px" y="0px" viewBox="0 0 100 125">
    <g transform="translate(0,-952.36218)">
        <path style="font-size:medium;font-style:normal;font-variant:normal;font-weight:normal;font-stretch:normal;text-indent:0;text-align:start;text-decoration:none;line-height:normal;letter-spacing:normal;word-spacing:normal;text-transform:none;direction:ltr;block-progression:tb;writing-mode:lr-tb;text-anchor:start;baseline-shift:baseline;opacity:1;color:#FFFFFF;fill:#FFFFFF;fill-opacity:1;stroke:none;stroke-width:3.57142853999999990;marker:none;visibility:visible;display:inline;overflow:visible;enable-background:accumulate;font-family:Sans;-inkscape-font-specification:Sans" d="M 50 5 C 25.182721 5 5 25.1827 5 50 C 5 74.8173 25.182721 95 50 95 C 74.817279 95 95 74.8173 95 50 C 95 25.1827 74.817279 5 50 5 z M 50.03125 11.40625 C 53.053389 13.418516 56.255431 17.864054 58.625 24.0625 C 61.043172 30.388084 62.632582 38.40802 62.9375 47 L 37.0625 47 C 37.367418 38.408014 38.956828 30.388084 41.375 24.0625 C 43.759655 17.824591 46.992346 13.394538 50.03125 11.40625 z M 40.9375 12.0625 C 38.922719 14.837617 37.215086 18.186797 35.78125 21.9375 C 33.057651 29.062036 31.366815 37.729775 31.0625 47 L 11.125 47 C 12.422937 29.898833 24.693584 15.918167 40.9375 12.0625 z M 59.09375 12.0625 C 75.322896 15.928184 87.577856 29.909283 88.875 47 L 68.9375 47 C 68.633185 37.724847 66.942349 29.030786 64.21875 21.90625 C 62.792877 18.176374 61.092539 14.824628 59.09375 12.0625 z M 11.125 53 L 31.0625 53 C 31.366815 62.27018 33.057651 70.937973 35.78125 78.0625 C 37.213391 81.808767 38.926244 85.161591 40.9375 87.9375 C 24.693584 84.081826 12.422937 70.101126 11.125 53 z M 37.0625 53 L 62.9375 53 C 62.632582 61.586767 61.043172 69.580764 58.625 75.90625 C 56.249741 82.119572 53.028484 86.557074 50 88.5625 C 46.971516 86.562869 43.750259 82.150822 41.375 75.9375 C 38.956828 69.611924 37.367418 61.591949 37.0625 53 z M 68.9375 53 L 88.875 53 C 87.577856 70.090676 75.322896 84.071809 59.09375 87.9375 C 61.102977 85.1691 62.787069 81.807562 64.21875 78.0625 C 66.942349 70.937973 68.633185 62.270238 68.9375 53 z " transform="translate(0,952.36218)" />
    </g>
</svg>