<svg xmlns="http://www.w3.org/2000/svg" xmlns:xlink="http://www.w3.org/1999/xlink" version="1.1" x="0px" y="0px" viewBox="0 0 66 82.5" style="enable-background:new 0 0 66 66;" xml:space="preserve">
    <g>
        <path d="M33,36.5c-17.6,0-27.3,8.3-27.3,23.4v2h54.7v-2C60.3,44.8,50.6,36.5,33,36.5z M9.7,57.9c0.8-11.6,8.6-17.4,23.3-17.4   s22.5,5.9,23.3,17.4H9.7z" fill="#FFFFFF" />
        <path d="M33,35.1c7.6,0,13.9-7.2,13.9-16c0-8.6-6-15-13.9-15c-7.9,0-13.9,6.5-13.9,15C19.1,28,25.4,35.1,33,35.1z M33,8.1   c5.7,0,9.9,4.6,9.9,11c0,6.6-4.4,12-9.9,12c-5.4,0-9.9-5.4-9.9-12C23.1,12.7,27.3,8.1,33,8.1z" fill="#FFFFFF" />
    </g>
</svg>