<svg xmlns:dc="http://purl.org/dc/elements/1.1/" xmlns:cc="http://creativecommons.org/ns#" xmlns:rdf="http://www.w3.org/1999/02/22-rdf-syntax-ns#" xmlns:svg="http://www.w3.org/2000/svg" xmlns="http://www.w3.org/2000/svg" xmlns:sodipodi="http://sodipodi.sourceforge.net/DTD/sodipodi-0.dtd" xmlns:inkscape="http://www.inkscape.org/namespaces/inkscape" viewBox="0 0 893.75004 1439.062625" version="1.1" x="0px" y="0px">
    <g transform="translate(573.18486,-650.83736)">
        <path style="" d="m -254.43486,1755.8374 0,-46.25 242.499996,0 242.500004,0 0,-484.375 0,-484.37504 -242.500004,0 -242.499996,0 0,-45 0,-45 287.499996,0 287.500004,0 0,575.62504 0,575.625 -287.500004,0 -287.499996,0 0,-46.25 z m -206.5651,-414.6901 c -61.7017,-61.7046 -112.1849,-113.0339 -112.1849,-114.0651 0,-1.0313 50.62489,-52.4976 112.49975,-114.3696 l 112.49976,-112.4945 31.55873,31.5587 31.55873,31.5587 -59.36605,59.3759 -59.36606,59.376 234.68258,0 234.682556,0 0,45 0,45 -234.682556,0 -234.68258,0 59.36291,59.3727 59.36292,59.3728 -31.23347,31.2522 c -17.17841,17.1888 -31.52011,31.2523 -31.87045,31.2523 -0.35033,0 -51.12018,-50.4856 -112.82187,-112.1901 z" fill="#FFFFFF" />
    </g>
</svg>