<svg xmlns="http://www.w3.org/2000/svg" xmlns:xlink="http://www.w3.org/1999/xlink" xmlns:sketch="http://www.bohemiancoding.com/sketch/ns" viewBox="0 0 100 125" version="1.1" x="0px" y="0px">
    <title>Mail</title>
    <desc>Created with Sketch.</desc>
    <g stroke="none" stroke-width="1" fill="none" fill-rule="evenodd" sketch:type="MSPage">
        <g sketch:type="MSArtboardGroup" fill="#ffffff">
            <path d="M86,30.622966 L86,22 L14,22 L14,30.622966 L50,46.6271515 L86,30.622966 L86,30.622966 Z M86,39.3772701 L86,78 L14,78 L14,39.3772701 L50,55.3772701 L86,39.3772701 L86,39.3772701 Z M6,21.9976794 C6,17.5806831 9.58618247,14 14.00362,14 L85.99638,14 C90.4166573,14 94,17.5827987 94,21.9976794 L94,78.0023206 C94,82.4193169 90.4138175,86 85.99638,86 L14.00362,86 C9.58334272,86 6,82.4172013 6,78.0023206 L6,21.9976794 L6,21.9976794 Z" sketch:type="MSShapeGroup" />
        </g>
    </g>
</svg>