<svg xmlns="http://www.w3.org/2000/svg" data-name="Layer 1" viewBox="0 0 99.96 125.05000000000001" x="0px" y="0px"><defs><style>.cls-1{fill:none;}</style></defs><title>27b</title><path class="cls-1" d="M100,51.31a6.59,6.59,0,0,1-6.56,6.56H57.81V93.48h0A6.59,6.59,0,0,1,51.25,100h-2.5a6.59,6.59,0,0,1-6.56-6.56V57.79H6.57A6.59,6.59,0,0,1,0,51.23v-2.5a6.59,6.59,0,0,1,6.56-6.56H42.19V6.56A6.59,6.59,0,0,1,48.75,0h2.5a6.59,6.59,0,0,1,6.56,6.56V42.18H93.43A6.59,6.59,0,0,1,100,48.73Z" transform="translate(-0.02)"/><path d="M93.43,42.18H57.81V6.56A6.59,6.59,0,0,0,51.25,0h-2.5a6.59,6.59,0,0,0-6.56,6.56V42.18H6.57A6.59,6.59,0,0,0,0,48.73v2.5a6.59,6.59,0,0,0,6.56,6.56H42.19V93.41A6.59,6.59,0,0,0,48.75,100h2.5a6.59,6.59,0,0,0,6.56-6.56h0V57.79H93.43A6.59,6.59,0,0,0,100,51.23v-2.5A6.59,6.59,0,0,0,93.43,42.18Z" transform="translate(-0.02)"/><text x="0" y="115.04" fill="#000000" font-size="5px" font-weight="bold" font-family="'Helvetica Neue', Helvetica, Arial-Unicode, Arial, Sans-serif">Created by JohnnyZi</text><text x="0" y="120.04" fill="#000000" font-size="5px" font-weight="bold" font-family="'Helvetica Neue', Helvetica, Arial-Unicode, Arial, Sans-serif">from the Noun Project</text></svg>