<svg xmlns="http://www.w3.org/2000/svg" xmlns:xlink="http://www.w3.org/1999/xlink" version="1.1" x="0px" y="0px" viewBox="0 0 100 125" enable-background="new 0 0 100 100" xml:space="preserve"><g><g><path d="M90.448,20.069H68.157V8.339C68.157,6.491,66.654,5,64.818,5H35.193c-1.847,0-3.339,1.491-3.339,3.339v11.73H9.552    c-1.836,0-3.339,1.491-3.339,3.339c0,1.836,1.502,3.339,3.339,3.339h8.247l5.297,65.182C23.24,93.664,24.687,95,26.423,95h47.153    c1.747,0,3.194-1.336,3.328-3.072l5.297-65.182h8.247c1.847,0,3.339-1.502,3.339-3.339C93.787,21.56,92.296,20.069,90.448,20.069z     M38.532,11.677h22.948v8.391H38.532V11.677z M70.505,88.323H29.506l-5.008-61.577h51.004L70.505,88.323z"/></g><g><path d="M58.141,75.338c-1.844,0-3.339-1.495-3.339-3.339V42.516c0-1.844,1.495-3.339,3.339-3.339s3.339,1.495,3.339,3.339v29.482    C61.48,73.843,59.985,75.338,58.141,75.338z"/></g><g><path d="M41.863,75.338c-1.844,0-3.339-1.495-3.339-3.339V42.516c0-1.844,1.495-3.339,3.339-3.339s3.339,1.495,3.339,3.339v29.482    C45.201,73.843,43.707,75.338,41.863,75.338z"/></g></g><text x="0" y="115" fill="#000000" font-size="5px" font-weight="bold" font-family="'Helvetica Neue', Helvetica, Arial-Unicode, Arial, Sans-serif">Created by Garrett Knoll</text><text x="0" y="120" fill="#000000" font-size="5px" font-weight="bold" font-family="'Helvetica Neue', Helvetica, Arial-Unicode, Arial, Sans-serif">from the Noun Project</text></svg>