<svg xmlns="http://www.w3.org/2000/svg" xmlns:xlink="http://www.w3.org/1999/xlink" version="1.1" x="0px" y="0px" viewBox="-50 822 100 125" enable-background="new -50 822 100 100" xml:space="preserve"><g><g><path d="M3.1,878.2h-6.2c-1.7,0-3.1,1.4-3.1,3.1v18.8c0,1.7,1.4,3.1,3.1,3.1h6.2c1.7,0,3.1-1.4,3.1-3.1v-18.8    C6.2,879.7,4.8,878.2,3.1,878.2z"/></g><g><path d="M34.4,859.5H25V847c0-10.3-8.4-18.8-18.8-18.8H-6.2c-10.3,0-18.8,8.4-18.8,18.8v12.5h-9.4c-1.7,0-3.1,1.4-3.1,3.1v46.9    c0,6.9,5.6,12.5,12.5,12.5h50c6.9,0,12.5-5.6,12.5-12.5v-46.9C37.5,860.9,36.1,859.5,34.4,859.5z M-18.8,847    c0-6.9,5.6-12.5,12.5-12.5H6.2c6.9,0,12.5,5.6,12.5,12.5v12.5h-37.5V847z M31.2,865.8v42.2c0,4.3-3.5,7.8-7.8,7.8h-46.9    c-4.3,0-7.8-3.5-7.8-7.8v-42.2"/></g></g><text x="-50" y="937" fill="#000000" font-size="5px" font-weight="bold" font-family="'Helvetica Neue', Helvetica, Arial-Unicode, Arial, Sans-serif">Created by Jack Zwanenburg</text><text x="-50" y="942" fill="#000000" font-size="5px" font-weight="bold" font-family="'Helvetica Neue', Helvetica, Arial-Unicode, Arial, Sans-serif">from the Noun Project</text></svg>