<?xml version="1.0" encoding="utf-8"?>
<!-- Generator: Adobe Illustrator 16.0.0, SVG Export Plug-In . SVG Version: 6.00 Build 0)  -->
<!DOCTYPE svg PUBLIC "-//W3C//DTD SVG 1.1//EN" "http://www.w3.org/Graphics/SVG/1.1/DTD/svg11.dtd">
<svg version="1.1" id="Layer_1" xmlns="http://www.w3.org/2000/svg" xmlns:xlink="http://www.w3.org/1999/xlink" x="0px" y="0px"
	 width="50px" height="50px" viewBox="0 0 50 50" enable-background="new 0 0 50 50" xml:space="preserve">
<path d="M25,45C14.346,45,5.679,36.391,5.679,25.808C5.679,15.226,14.346,6.617,25,6.617c10.654,0,19.32,8.61,19.32,19.191
	C44.32,36.391,35.654,45,25,45z M25,8.217c-9.771,0-17.721,7.891-17.721,17.591C7.279,35.509,15.229,43.4,25,43.4
	c9.771,0,17.721-7.892,17.721-17.593C42.721,16.107,34.771,8.217,25,8.217z"/>
<g>
	<path d="M24.984,26.686c-5.526,0-8.571,2.606-8.571,7.348v0.628h17.174v-0.628C33.556,29.292,30.51,26.686,24.984,26.686z
		 M17.668,33.404c0.251-3.643,2.7-5.463,7.315-5.463c4.616,0,7.064,1.853,7.315,5.463H17.668z"/>
	<path d="M24.984,26.246c2.387,0,4.364-2.262,4.364-5.023c0-2.701-1.881-4.71-4.364-4.71c-2.48,0-4.363,2.04-4.363,4.71
		C20.621,24.017,22.598,26.246,24.984,26.246z M24.984,17.769c1.792,0,3.108,1.444,3.108,3.454c0,2.072-1.381,3.768-3.108,3.768
		c-1.694,0-3.108-1.695-3.108-3.768C21.876,19.213,23.195,17.769,24.984,17.769z"/>
</g>
</svg>
