<svg xmlns="http://www.w3.org/2000/svg" xmlns:xlink="http://www.w3.org/1999/xlink" version="1.1" x="0px" y="0px" viewBox="0 0 100 100" enable-background="new 0 0 100 100" xml:space="preserve"><path d="M89.9,55.3c0.7,0.7,0.7,1.9,0,2.6c-0.4,0.4-0.8,0.5-1.3,0.5c-0.5,0-0.9-0.2-1.3-0.5L81,51.6l-6.3,6.3  c-0.4,0.4-0.8,0.5-1.3,0.5c-0.5,0-0.9-0.2-1.3-0.5c-0.7-0.7-0.7-1.9,0-2.6l6.3-6.3l-6.3-6.3c-0.7-0.7-0.7-1.9,0-2.6  c0.7-0.7,1.9-0.7,2.6,0l6.3,6.3l6.3-6.3c0.7-0.7,1.9-0.7,2.6,0c0.7,0.7,0.7,1.9,0,2.6L83.6,49L89.9,55.3z M63.2,21.2V75  c0,0,0,0.1,0,0.1c-0.1,1.9-1.4,2.7-2.6,2.7h0c-0.8,0-1.6-0.4-2.6-1.1L42.4,64.3h-6.1v11.9c0,3.4-2.7,6.1-6.1,6.1h-5.4  c-3.4,0-6.1-2.7-6.1-6.1V64.3h-4.5c-3.3,0-6-2.7-6-6V36.6c0-3.3,2.7-6,6-6h28.3l15.1-12.1c0.1-0.1,0.2-0.2,0.3-0.2  c0,0,1-0.5,2.1-0.5C61.9,17.8,63.2,19.2,63.2,21.2z M14.2,60.6h6.4h13.9h6.8V34.3H14.2c-1.2,0-2.3,1-2.3,2.3v21.7  C11.9,59.6,12.9,60.6,14.2,60.6z M32.6,64.3H22.4v11.9c0,1.3,1.1,2.4,2.4,2.4h5.4c1.3,0,2.4-1.1,2.4-2.4V64.3z M59.5,21.7L44.9,33.4  v28.2l14.5,11.6V21.7z"></path></svg>