<svg xmlns="http://www.w3.org/2000/svg" xmlns:xlink="http://www.w3.org/1999/xlink" version="1.1" x="0px" y="0px" viewBox="0 0 96 120" style="enable-background:new 0 0 96 96;" xml:space="preserve"><g><path d="M17.1,2.9c-1.7,0-3,1.3-3,3v11.2v39.3v33.7c0,1.7,1.3,3,3,3s3-1.3,3-3V58.8l4.5-0.9c7-1.4,14.3-0.8,21.1,1.6l0.3,0.1   c5,1.8,10.2,2.8,15.5,2.8c3.6,0,7.3-0.4,10.9-1.3l7.2-1.8c1.3-0.3,2.3-1.5,2.3-2.9V17.1c0-0.9-0.4-1.8-1.2-2.4s-1.7-0.8-2.6-0.5   L70.9,16c-7.6,1.9-15.5,1.5-22.9-1.2l-0.3-0.1c-7.8-2.8-16.2-3.5-24.3-1.9l-3.3,0.7V5.9C20.1,4.3,18.8,2.9,17.1,2.9z M24.7,18.6   c7-1.4,14.3-0.8,21.1,1.6l0.3,0.1c8.5,3.1,17.6,3.6,26.4,1.4l3.5-0.9V54l-5,1.2C63.3,57.1,55.4,56.7,48,54l-0.3-0.1   c-5-1.8-10.2-2.8-15.5-2.8c-2.9,0-5.9,0.3-8.8,0.9l-3.3,0.7V19.5L24.7,18.6z"/></g><text x="0" y="111" fill="#000000" font-size="5px" font-weight="bold" font-family="'Helvetica Neue', Helvetica, Arial-Unicode, Arial, Sans-serif">Created by Satisfactory</text><text x="0" y="116" fill="#000000" font-size="5px" font-weight="bold" font-family="'Helvetica Neue', Helvetica, Arial-Unicode, Arial, Sans-serif">from the Noun Project</text></svg>