<svg xmlns="http://www.w3.org/2000/svg" xmlns:xlink="http://www.w3.org/1999/xlink" version="1.1" x="0px" y="0px" viewBox="0 0 100 125" style="enable-background:new 0 0 100 100;" xml:space="preserve"><g><path d="M43.8,95c-0.8,0-1.6-0.2-2.3-0.5c-2.2-0.9-3.7-3.1-3.7-5.5V44.6L8.4,15.2c-1.7-1.7-2.2-4.3-1.3-6.5C8.1,6.5,10.3,5,12.7,5   h74.6c2.4,0,4.6,1.5,5.5,3.7c0.9,2.2,0.4,4.8-1.3,6.5L62.2,44.6v32c0,1.6-0.6,3.1-1.8,4.2L48,93.2C46.9,94.4,45.3,95,43.8,95z    M15.6,12.2l27.6,27.6c1.1,1.1,1.8,2.6,1.8,4.2v42.1L55,76.1v-32c0-1.6,0.6-3.1,1.8-4.2l27.6-27.6H15.6z"/></g><text x="0" y="115" fill="#000000" font-size="5px" font-weight="bold" font-family="'Helvetica Neue', Helvetica, Arial-Unicode, Arial, Sans-serif">Created by Allen</text><text x="0" y="120" fill="#000000" font-size="5px" font-weight="bold" font-family="'Helvetica Neue', Helvetica, Arial-Unicode, Arial, Sans-serif">from the Noun Project</text></svg>