<svg xmlns:dc="http://purl.org/dc/elements/1.1/" xmlns:cc="http://creativecommons.org/ns#" xmlns:rdf="http://www.w3.org/1999/02/22-rdf-syntax-ns#" xmlns:svg="http://www.w3.org/2000/svg" xmlns="http://www.w3.org/2000/svg" xmlns:sodipodi="http://sodipodi.sourceforge.net/DTD/sodipodi-0.dtd" xmlns:inkscape="http://www.inkscape.org/namespaces/inkscape" version="1.1" x="0px" y="0px" viewBox="0 0 100 125"><g transform="translate(0,-952.36218)"><path style="text-indent:0;text-transform:none;direction:ltr;block-progression:tb;baseline-shift:baseline;color:#000000;enable-background:accumulate;" d="m 50,976.36215 c -14.3357,0 -26,11.66436 -26,25.99995 0,14.3356 11.6643,26.0001 26,26.0001 14.3357,0 26,-11.6645 26,-26.0001 0,-14.33559 -11.6643,-25.99995 -26,-25.99995 z m 0,4 c 12.1739,0 22,9.82616 22,21.99995 0,12.1738 -9.8261,22.0001 -22,22.0001 -12.1739,0 -22,-9.8263 -22,-22.0001 0,-12.17379 9.8261,-21.99995 22,-21.99995 z m 0,4.99996 c -1.1046,0 -2,0.8954 -2,2 l 0,14.99999 c 0,1.1046 0.8954,2 2,2 l 13,0 c 1.1046,0 2,-0.8954 2,-2 0,-1.1046 -0.8954,-2 -2,-2 l -11,0 0,-12.99999 c 0,-1.1046 -0.8954,-2 -2,-2 z" fill="#000000" fill-opacity="1" stroke="none" marker="none" visibility="visible" display="inline" overflow="visible"/></g><text x="0" y="115" fill="#000000" font-size="5px" font-weight="bold" font-family="'Helvetica Neue', Helvetica, Arial-Unicode, Arial, Sans-serif">Created by Alfa Design</text><text x="0" y="120" fill="#000000" font-size="5px" font-weight="bold" font-family="'Helvetica Neue', Helvetica, Arial-Unicode, Arial, Sans-serif">from the Noun Project</text></svg>