<svg xmlns="http://www.w3.org/2000/svg" xmlns:xlink="http://www.w3.org/1999/xlink" version="1.2" baseProfile="tiny" x="0px" y="0px" viewBox="0 0 100 125" xml:space="preserve"><path d="M35,12.5h-1.398c-5.507,0-10.789,2.188-14.684,6.082h0c-4.109,4.109-6.418,9.683-6.418,15.494v0   c0,3.88,1.03,7.69,2.985,11.041C25,61.428,38.572,75,54.883,84.515c3.351,1.955,7.161,2.985,11.041,2.985   c5.811,0,11.385-2.309,15.494-6.418h0c3.894-3.894,6.082-9.176,6.082-14.684V65l-20-7.5L60,65c-9.902-6.601-18.399-15.098-25-25   l7.5-7.5L35,12.5z"/><text x="0" y="115" fill="#000000" font-size="5px" font-weight="bold" font-family="'Helvetica Neue', Helvetica, Arial-Unicode, Arial, Sans-serif">Created by Arthur Shlain</text><text x="0" y="120" fill="#000000" font-size="5px" font-weight="bold" font-family="'Helvetica Neue', Helvetica, Arial-Unicode, Arial, Sans-serif">from the Noun Project</text></svg>