<svg xmlns="http://www.w3.org/2000/svg" xmlns:xlink="http://www.w3.org/1999/xlink" version="1.1" x="0px" y="0px" viewBox="0 0 100 125" style="enable-background:new 0 0 100 100;" xml:space="preserve"><path d="M71.3,69.3l0.4-0.5c6-7,9.3-15.8,9.3-25c0-21.1-17.2-38.3-38.3-38.3C21.6,5.5,4.4,22.7,4.4,43.8s17.2,38.3,38.3,38.3  c8.6,0,16.8-2.8,23.6-8.1l0.4-0.3L92,94.1l3.9-4.8L71.3,69.3z M42.7,75.9c-17.7,0-32.1-14.4-32.1-32.1c0-17.7,14.4-32.1,32.1-32.1  c17.7,0,32.1,14.4,32.1,32.1C74.8,61.5,60.4,75.9,42.7,75.9z"/><polygon points="54.7,35.9 50.3,31.5 42.4,39.4 34.5,31.5 30.1,35.9 38,43.8 30.1,51.7 34.5,56.1 42.4,48.2 50.3,56.1 54.7,51.7   46.8,43.8 "/><text x="0" y="115" fill="#000000" font-size="5px" font-weight="bold" font-family="'Helvetica Neue', Helvetica, Arial-Unicode, Arial, Sans-serif">Created by Aneeque Ahmed</text><text x="0" y="120" fill="#000000" font-size="5px" font-weight="bold" font-family="'Helvetica Neue', Helvetica, Arial-Unicode, Arial, Sans-serif">from the Noun Project</text></svg>