<svg xmlns="http://www.w3.org/2000/svg" xmlns:xlink="http://www.w3.org/1999/xlink" version="1.1" x="0px" y="0px" viewBox="0 0 100 125" style="enable-background:new 0 0 100 100;" xml:space="preserve"><g><path d="M18.6,84.5l21.9-6.4c0,0,0.1,0,0.1,0c0.1,0,0.3-0.1,0.4-0.2c0,0,0.1,0,0.1-0.1c0.2-0.1,0.3-0.2,0.4-0.3l39.6-39.6   c4.7-4.7,4.4-13.3-0.7-18.4c-5.1-5.1-13.7-5.4-18.4-0.7L22.5,58.4c-0.1,0.1-0.2,0.3-0.3,0.4c0,0,0,0.1-0.1,0.1   c-0.1,0.1-0.1,0.3-0.2,0.4c0,0,0,0.1,0,0.1l-6.4,21.9c-0.3,0.9,0,1.8,0.6,2.5c0.5,0.5,1.1,0.7,1.8,0.7   C18.2,84.6,18.4,84.5,18.6,84.5z M77,23c3.1,3.1,3.4,8.6,0.7,11.3l-3.3,3.3l-12-12l3.3-3.3C68.4,19.6,73.9,19.9,77,23z M58.9,29.1   l12,12l-31,31l-12-12L58.9,29.1z M25.5,64.9l9.6,9.6l-13.5,3.9L25.5,64.9z"/></g><text x="0" y="115" fill="#000000" font-size="5px" font-weight="bold" font-family="'Helvetica Neue', Helvetica, Arial-Unicode, Arial, Sans-serif">Created by Ananth</text><text x="0" y="120" fill="#000000" font-size="5px" font-weight="bold" font-family="'Helvetica Neue', Helvetica, Arial-Unicode, Arial, Sans-serif">from the Noun Project</text></svg>